# xmcd
#
# Track frame offsets:
#	187
#	15065
#	29770
#	49477
#	66070
#	81045
#	95932
#	109405
#	126962
#	141375
#
# Disc length: 2091 seconds
#
# Revision: 3
# Processed by: cddbd v1.5.2PL0 Copyright (c) Steve Scherf et al.
# Submitted via: VUPlayer 2.49
#
DISCID=9008290a
DTITLE=The Bellamy Brothers - Greatest Hits
DYEAR=1982
DGENRE=Oldie
TTITLE0=Let Your Love Flow
TTITLE1=If I Said You Have A Beautiful Body Would You Hold it Against Me
TTITLE2=You Ain't Just Whistlin' Dixie
TTITLE3=Sugar Daddy
TTITLE4=Dancin' Cowbows
TTITLE5=Lovers Live Longer
TTITLE6=Do You Love As Good As You Look
TTITLE7=For All the Wrong Reasons
TTITLE8=Get into Reggae Cowboy
TTITLE9=Redneck Girl
EXTD=
EXTT0=
EXTT1=
EXTT2=
EXTT3=
EXTT4=
EXTT5=
EXTT6=
EXTT7=
EXTT8=
EXTT9=
PLAYORDER=
